<svg width="19" height="19" viewBox="0 0 19 19" fill="none" xmlns="http://www.w3.org/2000/svg">
<path fill-rule="evenodd" clip-rule="evenodd" d="M19 19H15.2V12.3509C15.2 10.5269 14.3954 9.50928 12.9523 9.50928C11.382 9.50928 10.45 10.5697 10.45 12.3509V19H6.65V6.65H10.45V8.03882C10.45 8.03882 11.6422 5.94678 14.3288 5.94678C17.0164 5.94678 19 7.5868 19 10.9802V19ZM2.3199 4.67485C1.03835 4.67485 0 3.62801 0 2.33696C0 1.04686 1.03835 0 2.3199 0C3.6005 0 4.63885 1.04686 4.63885 2.33696C4.6398 3.62801 3.6005 4.67485 2.3199 4.67485ZM0 19H4.75V6.65H0V19Z" fill="#E7E7E7"/>
</svg>
